<svg xmlns="http://www.w3.org/2000/svg" width="83" height="83" viewBox="0 0 83 83">
    <g fill="none" fill-rule="evenodd">
        <circle cx="41" cy="42" r="23" fill="#FFF"/>
        <path fill="#05C0A5" d="M21.832 28l6.758 4.193.41 6.458-.41 4.601.41 5.764L21.832 54l-3.085-5.387L17 40.49l1.337-6.22zM59.168 28l-6.758 4.193-.41 6.458.41 4.601-.41 5.764L59.168 54l3.085-5.387L64 40.49l-1.337-6.22z"/>
        <path fill="#003945" fill-rule="nonzero" d="M58.737 23.382c-9.728-9.795-25.555-9.85-35.354-.12-9.798 9.73-9.849 25.557-.122 35.355 9.73 9.797 25.558 9.85 35.357.12 9.796-9.729 9.849-25.556.12-35.355zm-6.908-1.16l-5.302 5.266a14.644 14.644 0 0 0-10.96-.038L30.3 22.148a21.752 21.752 0 0 1 21.53.074zM27.455 46.434l-5.303 5.264a21.74 21.74 0 0 1 .074-21.529l5.268 5.303a14.633 14.633 0 0 0-.04 10.962zm2.717 13.343l5.304-5.266a14.64 14.64 0 0 0 10.959.036l5.266 5.304a21.752 21.752 0 0 1-21.53-.074zM48.955 49.01c-4.417 4.388-11.58 4.362-15.97-.055-4.387-4.418-4.361-11.58.058-15.968s11.58-4.364 15.968.054c4.389 4.417 4.363 11.58-.056 15.97zm5.552-2.485a14.636 14.636 0 0 0 .038-10.96l5.302-5.267a21.744 21.744 0 0 1-.074 21.53l-5.266-5.303z"/>
    </g>
</svg>
