<svg xmlns="http://www.w3.org/2000/svg" width="33" height="33" viewBox="0 0 33 33">
    <g fill="none" fill-rule="evenodd">
        <rect width="489" height="189" x=".5" y=".5" stroke="#CECECE" rx="4" transform="translate(-331.473 -125.628)"/>
        <path stroke="#003945" stroke-width="2" d="M12.99 25.682C7.283 27.394 7.283 22.828 5 22.258m15.98 6.848v-4.417a3.847 3.847 0 0 0-1.073-2.98c3.584-.399 7.35-1.757 7.35-7.99a6.21 6.21 0 0 0-1.712-4.28 5.787 5.787 0 0 0-.103-4.303s-1.346-.399-4.462 1.69a15.272 15.272 0 0 0-7.99 0c-3.116-2.089-4.463-1.69-4.463-1.69a5.787 5.787 0 0 0-.103 4.304 6.21 6.21 0 0 0-1.712 4.314c0 6.186 3.767 7.545 7.35 7.99a3.847 3.847 0 0 0-1.072 2.945v4.417"/>
    </g>
</svg>
