<?xml version="1.0" encoding="UTF-8"?>
<svg width="33px" height="24px" viewBox="0 0 33 24" version="1.1" xmlns="http://www.w3.org/2000/svg" xmlns:xlink="http://www.w3.org/1999/xlink">
    <!-- Generator: Sketch 53.2 (72643) - https://sketchapp.com -->
    <title>Path</title>
    <desc>Created with Sketch.</desc>
    <g id="Landing-pages" stroke="none" stroke-width="1" fill="none" fill-rule="evenodd">
        <g id="FAQs-1"  fill="#003945" fill-rule="nonzero">
            <g id="medium-size" >
                <path d="M33,3.42889269 L31.1790869,3.42889269 C30.7049498,3.42889269 29.4642955,3.92840076 29.4642955,4.35363081 L29.4642955,19.7957189 C29.4642955,20.2220073 30.7049498,20.5715042 31.1790869,20.5715042 L33,20.5715042 L33,24 L21.2142273,24 L21.2142273,20.5715042 L23.5719547,20.5715042 L23.5719547,4.57117345 L23.1616542,4.57117345 L17.4882404,23.9999339 L13.0956516,23.9999339 L7.4956227,4.57117345 L7.07147729,4.57117345 L7.07147729,20.571438 L9.42818171,20.571438 L9.42818171,23.9999339 L0,24 L0,20.571438 L1.30762824,20.571438 C1.82098128,20.571438 2.35677262,20.2220073 2.35677262,19.7956528 L2.35677262,4.35363081 C2.35677262,3.92833461 1.82104948,3.42889269 1.30762824,3.42889269 L0,3.42889269 L0,0 L12.218648,4.6997064e-16 L16.2081656,13.7141156 L16.3155148,13.7141156 L20.3443847,0 L33,0 L33,3.42889269 Z" id="Path"></path>
            </g>
        </g>
    </g>
</svg>