<svg xmlns="http://www.w3.org/2000/svg" width="83" height="83" viewBox="0 0 83 83">
    <g fill="none" fill-rule="evenodd">
        <g fill="#05C0A5" transform="translate(22.667 15)">
            <circle cx="2.333" cy="2.333" r="2.333"/>
            <circle cx="8.333" cy="5.667" r="2.333"/>
            <circle cx="14.333" cy="9" r="2.333"/>
        </g>
        <path fill="#FFF" d="M35.2 26.645l10.038 5.875v11.96L35.2 38.83zM57.917 26.645L47.879 32.67v12.335L57.917 39.1z"/>
        <g fill-rule="nonzero">
            <path fill="#00FFB0" d="M46.346 31.94l6.455-3.744 6.06-3.513-12.515-7.25-6.06 3.513-6.455 3.737z"/>
            <path fill="#003945" stroke="#003945" d="M60.555 24.626a1.325 1.325 0 0 0-.043-.322c-.012-.044-.036-.084-.053-.126-.025-.066-.046-.132-.08-.193-.025-.042-.06-.076-.088-.115-.04-.054-.075-.11-.123-.159-.034-.034-.078-.059-.115-.09-.051-.04-.099-.087-.157-.12l-.008-.004-.007-.005-12.667-7.166a1.333 1.333 0 0 0-1.313 0l-6.13 3.472h-.003l-6.533 3.694-.007.005-.008.003c-.056.033-.102.078-.152.118-.039.032-.084.057-.118.092-.05.05-.086.108-.127.164-.027.037-.061.07-.084.11-.038.066-.061.138-.087.21-.014.036-.036.071-.046.11-.028.1-.039.204-.042.31 0 .012-.006.024-.006.038v15c0 .48.26.924.677 1.16l12.667 7.167c.068.038.14.061.212.086.035.013.068.033.104.042a1.31 1.31 0 0 0 .681.001c.035-.01.068-.03.103-.042.072-.025.145-.048.213-.086l12.667-7.167c.418-.236.676-.68.676-1.16v-15c0-.01-.003-.018-.003-.027zm-25.33 2.314l10 5.663v11.93l-10-5.658V26.94zm22.667 11.935l-10 5.658v-11.93l10-5.663v11.935z"/>
            <path fill="#05C0A5" d="M46.817 29.305l9.592-5.259-9.627-5.417-9.557 5.471z"/>
        </g>
        <g>
            <path fill="#FFF" d="M16.642 37.161l10.037 5.876v11.96l-10.037-5.65zM39.358 37.161l-10.037 6.025v12.336l10.037-5.905z"/>
            <g fill-rule="nonzero">
                <path fill="#00FFB0" d="M27.788 42.456l6.455-3.743 6.06-3.514-12.515-7.25-6.06 3.514-6.455 3.736z"/>
                <path fill="#003945" stroke="#003945" d="M41.997 35.143a1.325 1.325 0 0 0-.044-.322c-.012-.045-.036-.084-.052-.127-.026-.065-.046-.132-.081-.192-.024-.042-.059-.076-.087-.115-.04-.054-.076-.111-.124-.16-.034-.033-.077-.058-.114-.089-.052-.041-.099-.087-.157-.121l-.009-.003-.006-.005-12.667-7.167a1.333 1.333 0 0 0-1.313 0l-6.131 3.472h-.002l-6.533 3.694-.007.006c-.003 0-.006.002-.008.003-.057.033-.102.078-.152.118-.04.031-.084.057-.119.092-.049.05-.086.107-.126.163-.028.038-.062.07-.084.11-.038.066-.062.139-.088.21-.014.037-.035.072-.046.11-.027.1-.038.204-.041.31-.001.013-.006.025-.006.038v15c0 .481.259.924.677 1.161l12.666 7.167c.068.038.141.06.213.086.035.012.067.032.103.042a1.31 1.31 0 0 0 .682 0c.035-.009.068-.029.103-.042.072-.025.145-.048.213-.086l12.666-7.166c.418-.237.677-.68.677-1.16V35.168c0-.01-.003-.017-.003-.026zm-25.33 2.313l10 5.664v11.93l-10-5.659V37.456zm22.666 11.935l-10 5.658V43.12l10-5.663v11.935z"/>
                <path fill="#05C0A5" d="M28.259 39.822l9.592-5.26-9.628-5.417-9.556 5.472z"/>
            </g>
        </g>
        <g>
            <path fill="#FFF" d="M35.2 47.677l10.038 5.876v11.96L35.2 59.863zM57.917 47.677l-10.038 6.026v12.335l10.038-5.905z"/>
            <g fill-rule="nonzero">
                <path fill="#00FFB0" d="M46.346 52.972l6.455-3.743 6.06-3.513-12.515-7.25-6.06 3.513-6.455 3.737z"/>
                <path fill="#003945" stroke="#003945" d="M60.555 45.66a1.325 1.325 0 0 0-.043-.323c-.012-.044-.036-.084-.053-.126-.025-.066-.046-.132-.08-.193-.025-.042-.06-.076-.088-.115-.04-.054-.075-.111-.123-.159-.034-.034-.078-.059-.115-.09-.051-.04-.099-.087-.157-.12l-.008-.004-.007-.005-12.667-7.166a1.333 1.333 0 0 0-1.313 0l-6.13 3.472h-.003l-6.533 3.694-.007.005-.008.003c-.056.033-.102.078-.152.118-.039.032-.084.057-.118.092-.05.05-.086.108-.127.164-.027.037-.061.07-.084.11-.038.066-.061.138-.087.209-.014.037-.036.072-.046.11-.028.1-.039.205-.042.31 0 .013-.006.025-.006.039v15c0 .48.26.924.677 1.16l12.667 7.167c.068.038.14.06.212.086.035.013.068.033.104.042a1.31 1.31 0 0 0 .681 0c.035-.008.068-.028.103-.041.072-.025.145-.048.213-.086l12.667-7.167c.418-.236.676-.68.676-1.16v-15c0-.01-.003-.018-.003-.027zm-25.33 2.313l10 5.663v11.93l-10-5.659V47.973zm22.667 11.934l-10 5.659v-11.93l10-5.663v11.934z"/>
                <path fill="#05C0A5" d="M46.817 50.338l9.592-5.26-9.627-5.416-9.557 5.471z"/>
            </g>
        </g>
        <g fill="#05C0A5" transform="translate(51.333 55)">
            <circle cx="2.333" cy="2.333" r="2.333"/>
            <circle cx="8.333" cy="5.667" r="2.333"/>
            <circle cx="14.333" cy="9" r="2.333"/>
        </g>
    </g>
</svg>
