<svg xmlns="http://www.w3.org/2000/svg" width="83" height="83" viewBox="0 0 83 83">
    <g fill="none" fill-rule="evenodd">
        <path fill="#FFF" d="M23.293 21.289l2.758-2.846H44.94l1.45 1.423v7.211l1.386 3.522 3.516.915h7.859l1.022 26.347-1.571 6.117-2.347 1.319H27.143l-3.85-1.882v-4.674z"/>
        <path fill="#05C0A5" d="M46.663 20.26v6.924l2.153 3.005 4.283 1.09h4.412l-4.412-7.371-6.436-4.411z"/>
        <path fill="#003945" fill-rule="nonzero" d="M27.754 16C24.03 16 21 19.077 21 22.86v37.627c0 3.782 3.03 6.86 6.754 6.86H54.69c3.72 0 6.753-3.078 6.753-6.86v-29.01c0-.075-.036-.145-.046-.22a1.589 1.589 0 0 0-.04-.214c-.077-.288-.198-.56-.407-.776L47.469 16.575c-.047-.048-.114-.053-.164-.094A1.699 1.699 0 0 0 46.133 16h-18.38zm0 3.423h16.839v6.953c0 3.755 3.004 6.813 6.7 6.813h6.781v27.298c0 1.893-1.52 3.436-3.383 3.436H27.754c-1.864 0-3.384-1.543-3.384-3.436V22.86c0-1.893 1.52-3.437 3.384-3.437zm20.209 2.547c2.278 2.3 5.373 5.43 7.715 7.796h-4.384c-1.837 0-3.331-1.52-3.331-3.39V21.97zm2.699 24.062l-2.317 2.487 2.185 2.1h-6.964v3.423h7.037l-2.271 2.246 2.343 2.454 5.26-5.188a1.725 1.725 0 0 0-.013-2.467l-5.26-5.055z"/>
    </g>
</svg>
