<svg xmlns="http://www.w3.org/2000/svg" width="83" height="83" viewBox="0 0 83 83">
    <g fill="none" fill-rule="evenodd">
        <circle cx="41.5" cy="44.5" r="10.5" fill="#FFF"/>
        <circle cx="41" cy="21" r="4" fill="#05C0A5"/>
        <circle cx="63" cy="32" r="4" fill="#05C0A5"/>
        <circle cx="59" cy="62" r="4" fill="#05C0A5"/>
        <circle cx="24" cy="62" r="4" fill="#05C0A5"/>
        <circle cx="16" cy="38" r="4" fill="#05C0A5"/>
        <path fill="#003945" fill-rule="nonzero" d="M68.299 29.619a5.861 5.861 0 0 0-3.489-2.875 5.825 5.825 0 0 0-4.488.448 5.881 5.881 0 0 0-2.86 3.508 5.917 5.917 0 0 0-.096 3.056l-6.363 3.427c-1.936-2.733-4.953-4.636-8.42-5.075v-5.46a5.93 5.93 0 0 0 4.361-5.722c0-3.268-2.644-5.926-5.893-5.926-3.25 0-5.894 2.658-5.894 5.926a5.93 5.93 0 0 0 4.36 5.722v5.46c-4.427.56-8.124 3.51-9.766 7.524l-6.965-1.887a5.908 5.908 0 0 0-.782-2.955 5.86 5.86 0 0 0-3.575-2.767c-3.138-.85-6.378 1.026-7.223 4.18a5.915 5.915 0 0 0 .582 4.498 5.861 5.861 0 0 0 3.575 2.767 5.837 5.837 0 0 0 4.473-.586 5.869 5.869 0 0 0 2.152-2.16l6.965 1.887a12.26 12.26 0 0 0 2.45 9.201l-5.106 5.135a5.876 5.876 0 0 0-7.103.941c-2.298 2.31-2.298 6.07 0 8.381A5.859 5.859 0 0 0 23.362 68c1.509 0 3.018-.578 4.167-1.733 1.922-1.933 2.23-4.877.936-7.142l5.107-5.134a12.107 12.107 0 0 0 7.479 2.581c2.816 0 5.41-.965 7.478-2.581l5.107 5.134c-1.294 2.265-.986 5.21.936 7.142A5.859 5.859 0 0 0 58.739 68a5.86 5.86 0 0 0 4.168-1.733c2.298-2.31 2.298-6.07 0-8.38a5.875 5.875 0 0 0-7.103-.942l-5.106-5.135a12.26 12.26 0 0 0 2.567-7.52c0-1.547-.288-3.027-.81-4.392l6.36-3.423a5.885 5.885 0 0 0 4.297 1.87c.957 0 1.906-.237 2.774-.705a5.88 5.88 0 0 0 2.859-3.508 5.917 5.917 0 0 0-.446-4.513zm-3.861 5.303a2.792 2.792 0 0 1-2.153.215 2.81 2.81 0 0 1-1.674-1.38 2.837 2.837 0 0 1-.214-2.165 2.82 2.82 0 0 1 1.372-1.683 2.8 2.8 0 0 1 2.153-.215 2.81 2.81 0 0 1 1.674 1.38c.357.669.432 1.438.213 2.165a2.819 2.819 0 0 1-1.371 1.683zm-14.24 9.368c0 5.072-4.103 9.199-9.148 9.199-5.044 0-9.148-4.127-9.148-9.2 0-5.072 4.104-9.198 9.148-9.198 5.045 0 9.149 4.126 9.149 9.199zM38.224 20.926a2.838 2.838 0 0 1 2.827-2.843 2.838 2.838 0 0 1 2.828 2.843 2.838 2.838 0 0 1-2.828 2.843 2.838 2.838 0 0 1-2.827-2.843zM16.16 40.491a2.811 2.811 0 0 1-1.714-1.327 2.837 2.837 0 0 1-.28-2.158A2.829 2.829 0 0 1 17.632 35c.729.198 1.338.669 1.715 1.327.376.659.476 1.425.279 2.158a2.829 2.829 0 0 1-3.466 2.006zm9.2 23.595a2.82 2.82 0 0 1-3.998 0 2.858 2.858 0 0 1 0-4.02 2.81 2.81 0 0 1 2-.831c.724 0 1.448.277 1.999.83a2.858 2.858 0 0 1 0 4.021zm35.378-4.02a2.858 2.858 0 0 1 0 4.02 2.82 2.82 0 0 1-3.998 0 2.858 2.858 0 0 1 0-4.02 2.81 2.81 0 0 1 2-.831 2.81 2.81 0 0 1 1.998.83z"/>
    </g>
</svg>
