<svg xmlns="http://www.w3.org/2000/svg" width="83" height="83" viewBox="0 0 83 83">
    <g fill="none" fill-rule="evenodd">
        <path fill="#05C0A5" d="M12.849 53.612h58.869v5.633H12.849z"/>
        <path fill="#FFF" d="M17.596 17.939H66.97v32.857H17.596z"/>
        <path fill="#003945" fill-rule="nonzero" d="M69.27 51.095V22.703c0-3.145-2.604-5.703-5.803-5.703H20.15c-3.199 0-5.802 2.558-5.802 5.703v28.392C11.937 51.181 10 53.131 10 55.523v3.041C10 61.01 12.024 63 14.513 63h54.591c2.489 0 4.513-1.99 4.513-4.436v-3.041c0-2.391-1.936-4.342-4.348-4.428zM20.15 20.802h43.317c1.067 0 1.934.853 1.934 1.901v28.384H18.216V22.703c0-1.048.868-1.9 1.934-1.9zm49.6 37.762a.648.648 0 0 1-.646.634H14.513a.648.648 0 0 1-.645-.634v-3.041c0-.344.295-.634.645-.634h54.591c.35 0 .645.29.645.634v3.041z"/>
        <g fill="#003945" fill-rule="nonzero" transform="translate(30.89 26.388)">
            <path d="M8.353 9.12a10.4 10.4 0 0 0-4.288 2.475l2.167 2.094a7.28 7.28 0 0 1 2.214-1.46l-.093-3.11zM8.176 3.43C5.176 4.014 2.32 5.425 0 7.668l2.167 2.094C3.911 8.077 6.032 6.98 8.27 6.45l-.093-3.02zM14.594 3.43L14.5 6.454c2.237.53 4.357 1.627 6.101 3.312l2.168-2.094c-2.316-2.247-5.177-3.658-8.176-4.242zM14.32 12.229a7.288 7.288 0 0 1 2.218 1.465l2.167-2.094a10.381 10.381 0 0 0-4.288-2.48l-.098 3.109z"/>
            <ellipse cx="11.038" cy="16.122" rx="1.78" ry="1.715"/>
            <path d="M11.763 13.035h-1.454a.701.701 0 0 1-.702-.684L9.258.725A.704.704 0 0 1 9.96 0h2.156c.395 0 .716.326.702.725l-.353 11.626a.701.701 0 0 1-.702.684z"/>
        </g>
    </g>
</svg>
