<svg xmlns="http://www.w3.org/2000/svg" width="83" height="83" viewBox="0 0 83 83">
    <g fill="none" fill-rule="evenodd">
        <path fill="#FFF" d="M18.597 49.933h41.551v7.8H18.597z"/>
        <path fill="#003945" fill-rule="nonzero" d="M59.988 25.354a5.94 5.94 0 0 1 5.931 5.935 5.94 5.94 0 0 1-5.931 5.935H27.087l4.703 4.707a2.138 2.138 0 0 1-1.51 3.648 2.128 2.128 0 0 1-1.51-.626L16.626 32.8a2.138 2.138 0 0 1 0-3.021l3.784-3.787.021-.021 8.34-8.345a2.134 2.134 0 0 1 3.02 0 2.138 2.138 0 0 1 0 3.022l-4.704 4.706h32.901z"/>
        <path fill="#05C0A5" d="M59.55 33.195H22.37l-1.66-1.906 1.66-1.905h37.18c.915 0 1.66.855 1.66 1.905 0 1.051-.745 1.906-1.66 1.906z"/>
        <path fill="#003945" fill-rule="nonzero" d="M65.294 52.642L53.149 40.489a2.134 2.134 0 0 0-3.02 0 2.138 2.138 0 0 0 0 3.022l4.704 4.707H21.93A5.94 5.94 0 0 0 16 54.153a5.94 5.94 0 0 0 5.931 5.935h32.902l-4.704 4.706a2.138 2.138 0 0 0 1.51 3.648c.546 0 1.093-.208 1.51-.626l8.339-8.344 3.806-3.809a2.137 2.137 0 0 0 0-3.021zm-6.19 3.172H21.93a1.663 1.663 0 0 1 0-3.323h37.173l1.66 1.662-1.66 1.66z"/>
    </g>
</svg>
