<svg xmlns="http://www.w3.org/2000/svg" width="83" height="83" viewBox="0 0 83 83">
    <g fill="none" fill-rule="evenodd">
        <circle cx="15.5" cy="33.5" r="3.5" fill="#05C0A5"/>
        <circle cx="15.5" cy="48.5" r="3.5" fill="#05C0A5"/>
        <circle cx="66.5" cy="48.5" r="3.5" fill="#05C0A5"/>
        <circle cx="66.5" cy="33.5" r="3.5" fill="#05C0A5"/>
        <circle cx="49.5" cy="15.5" r="3.5" fill="#05C0A5"/>
        <circle cx="35.5" cy="15.5" r="3.5" fill="#05C0A5"/>
        <circle cx="34.5" cy="67.5" r="3.5" fill="#05C0A5"/>
        <circle cx="49.5" cy="67.5" r="3.5" fill="#05C0A5"/>
        <path fill="#003945" d="M32.35 19.889v6.114a1.525 1.525 0 0 0 3.05 0v-6.114a4.574 4.574 0 1 0-6.034-5.086 4.574 4.574 0 0 0 2.984 5.086zm1.525-5.84a1.525 1.525 0 1 1 0 3.05 1.525 1.525 0 0 1 0-3.05zM49.125 11a4.575 4.575 0 0 0-1.525 8.889v6.114a1.525 1.525 0 0 0 3.05 0v-6.114A4.574 4.574 0 0 0 49.125 11zm0 6.099a1.525 1.525 0 1 1 0-3.05 1.525 1.525 0 0 1 0 3.05zm1.525 46.015V57a1.525 1.525 0 0 0-3.05 0v6.114a4.574 4.574 0 1 0 6.034 5.085 4.574 4.574 0 0 0-2.984-5.085zm-1.525 5.824a1.525 1.525 0 1 1 0-3.05 1.525 1.525 0 0 1 0 3.05zM35.4 63.114V57a1.525 1.525 0 0 0-3.05 0v6.114a4.574 4.574 0 1 0 6.034 5.085 4.574 4.574 0 0 0-2.984-5.085zm-1.525 5.824a1.525 1.525 0 1 1 0-3.05 1.525 1.525 0 0 1 0 3.05zm33.55-30.494a4.555 4.555 0 0 1-4.3-3.05h-6.116a1.525 1.525 0 1 1 0-3.048h6.115a4.57 4.57 0 1 1 4.3 6.098zm-.19-6.098a1.525 1.525 0 1 1 .001 3.05 1.525 1.525 0 0 1 0-3.05zM56.997 47.592h6.116a4.575 4.575 0 1 1 0 3.05h-6.116a1.525 1.525 0 1 1 0-3.05zm10.24 3.05a1.525 1.525 0 1 1 0-3.05 1.525 1.525 0 0 1 0 3.05zm-51.66-6.1a4.575 4.575 0 0 1 4.3 3.05h6.115a1.525 1.525 0 1 1 0 3.05h-6.115a4.57 4.57 0 1 1-4.3-6.1zm.188 6.1a1.525 1.525 0 1 1 0-3.05 1.525 1.525 0 0 1 0 3.05zm-.189-21.346a4.575 4.575 0 0 1 4.3 3.05h6.116a1.525 1.525 0 1 1 0 3.049h-6.115a4.57 4.57 0 1 1-4.3-6.099zm.19 6.099a1.525 1.525 0 1 1-.001-3.05 1.525 1.525 0 0 1 0 3.05z"/>
        <rect width="23" height="23" x="30.5" y="30.5" fill="#FFF" stroke="#003945" stroke-width="3" rx="11.5"/>
        <path fill="#003945" fill-rule="nonzero" stroke="#003945" stroke-width="1.4" d="M42.5 41.706c-1.01 0-1.833-.782-1.833-1.744 0-.961.823-1.744 1.833-1.744h2.666c.46 0 .834-.355.834-.794 0-.438-.373-.793-.834-.793h-1.832v-.837c0-.439-.374-.794-.834-.794-.46 0-.834.355-.834.794v.933C40.138 37.084 39 38.4 39 39.962c0 1.837 1.57 3.332 3.5 3.332 1.01 0 1.833.782 1.833 1.744s-.823 1.744-1.833 1.744h-2.666c-.46 0-.834.355-.834.794 0 .438.373.793.834.793h1.832v.837c0 .439.374.794.834.794.46 0 .834-.355.834-.794v-.933C44.862 47.916 46 46.6 46 45.038c0-1.837-1.57-3.332-3.5-3.332z"/>
    </g>
</svg>
