<svg xmlns="http://www.w3.org/2000/svg" width="83" height="83" viewBox="0 0 83 83">
    <g fill="none" fill-rule="evenodd">
        <path fill="#FFF" d="M21.207 36.584l20.13 4.662 20.848-5.024v7.974l-3.629 2.508v7.34l3.177 2.562.452 3.23v3.208l-20.49 3.993-20.917-4.387v-6.847l3.055-.793 1.233-3.38-.371-5.605-3.488-1.207-.43-5.014z"/>
        <path fill="#FFF" d="M32.333 28.408l.965-5.917 2.7-3.197 2.91-1.368h3.87l4.6 1.368 2.189 1.462 1.677 3.566v3.057l.349 10.254-9.505 2.441-9.755-2.44z"/>
        <path fill="#05C0A5" d="M17.889 44.889h6.741v10.593h-6.741zM58.333 44.889h6.741v10.593h-6.741z"/>
        <path fill="#003945" fill-rule="nonzero" d="M64.653 42.976v-9.252l-11.586 2.664v-8.84C53.067 21.17 47.88 16 41.481 16c-6.398 0-11.585 5.17-11.585 11.549v8.84L18.31 33.723v9.252A5.773 5.773 0 0 0 15 48.17v3.3a5.773 5.773 0 0 0 3.31 5.195v6.891l16.826 3.225.784-3.225-14.3-2.725V57.16a5.77 5.77 0 0 0 4.966-5.69v-3.3a5.77 5.77 0 0 0-4.966-5.69v-4.61l18.206 4.196v18.28h3.31v-18.28l18.207-4.189v4.61a5.77 5.77 0 0 0-4.966 5.683v3.3a5.77 5.77 0 0 0 4.966 5.69v3.67l-18.206 3.49v-7.076h-3.31v7.076l-4.067-.779-.624 3.24L41.48 68l23.172-4.443v-6.891a5.773 5.773 0 0 0 3.31-5.195v-3.3a5.773 5.773 0 0 0-3.31-5.195zM23.275 48.17v3.3a2.479 2.479 0 0 1-2.482 2.474 2.479 2.479 0 0 1-2.483-2.474v-3.3a2.479 2.479 0 0 1 2.483-2.475 2.479 2.479 0 0 1 2.482 2.475zM41.481 19.3c4.142.012 7.634 3.08 8.167 7.175l-4.664-2.325-11.73 2.923c.246-4.353 3.853-7.761 8.227-7.773zm8.276 17.85l-8.276 1.904-8.275-1.904v-6.663l11.394-2.84 5.157 2.571v6.932zm14.896 14.32a2.479 2.479 0 0 1-2.483 2.475 2.479 2.479 0 0 1-2.483-2.474v-3.3a2.479 2.479 0 0 1 2.483-2.475 2.479 2.479 0 0 1 2.483 2.475v3.3z"/>
    </g>
</svg>
