<svg xmlns="http://www.w3.org/2000/svg" width="83" height="83" viewBox="0 0 83 83">
    <g fill="none" fill-rule="evenodd">
        <path fill="#FFF" d="M16.962 28.736h48.075v36.302H16.962z"/>
        <path fill="#05C0A5" d="M17.294 17.294h48.177v11.47H17.294z"/>
        <g fill="#003945" fill-rule="nonzero" stroke="#003945" stroke-width=".5">
            <path d="M62.43 15H19.57C17.05 15 15 17.05 15 19.57v42.86c0 2.52 2.05 4.57 4.57 4.57h42.86c2.52 0 4.57-2.05 4.57-4.57V19.57c0-2.52-2.05-4.57-4.57-4.57zm1.523 47.43c0 .84-.683 1.523-1.523 1.523H19.57c-.84 0-1.523-.683-1.523-1.523V30.234h45.906V62.43zm0-35.242H18.047V19.57c0-.84.683-1.523 1.523-1.523h42.86c.84 0 1.523.683 1.523 1.523v7.617z"/>
            <path d="M58.815 20.778h-2.89a1.444 1.444 0 0 0 0 2.889h2.89a1.444 1.444 0 0 0 0-2.89zM50.148 20.778H47.26a1.444 1.444 0 0 0 0 2.889h2.89a1.444 1.444 0 0 0 0-2.89zM41.481 20.778h-2.888a1.444 1.444 0 0 0 0 2.889h2.888a1.444 1.444 0 0 0 0-2.89zM41.481 33.296c-7.699 0-13.962 6.264-13.962 13.963 0 7.7 6.263 13.963 13.962 13.963 7.7 0 13.963-6.264 13.963-13.963 0-7.699-6.263-13.963-13.963-13.963zm10.75 12.412h-4.58c-.13-2.916-.624-5.631-1.426-7.77a15.16 15.16 0 0 0-.22-.55c3.287 1.512 5.693 4.617 6.225 8.32zM30.732 48.81h4.579c.13 2.915.624 5.63 1.426 7.77.072.191.145.373.22.55-3.287-1.512-5.693-4.617-6.225-8.32zm6.005-10.873c-.802 2.139-1.296 4.854-1.426 7.77h-4.58c.533-3.703 2.94-6.808 6.225-8.32a15.16 15.16 0 0 0-.22.55zm6.582 17.553c-.805 2.145-1.617 2.628-1.839 2.628-.22 0-1.033-.483-1.838-2.628-.679-1.81-1.103-4.142-1.226-6.68h6.129c-.123 2.538-.547 4.87-1.226 6.68zm-4.903-9.783c.123-2.539.547-4.87 1.226-6.68.805-2.146 1.617-2.629 1.838-2.629.222 0 1.034.483 1.839 2.629.679 1.81 1.103 4.141 1.226 6.68h-6.129zm7.589 11.423c.074-.177.147-.359.22-.55.801-2.14 1.295-4.855 1.425-7.77h4.58c-.533 3.703-2.94 6.808-6.225 8.32z"/>
        </g>
    </g>
</svg>
