<svg xmlns="http://www.w3.org/2000/svg" width="83" height="83" viewBox="0 0 83 83">
    <g fill="none" fill-rule="evenodd">
        <path fill="#FFF" d="M20.288 40.903l6.621-.812 4.268 3.488 5.902 5.618 3.808 4.65.67 5.388-.67 2.883 3.959-1.002 4.22-5.803v-6.697l1.446-2.981 8.36-8.722 2.516-11.856v-4.46l-1.042-.932-11.28 2.2-6.803 3.699-4.515 5.909-3.643 2.013-3.439-.683-5.776 1.673-2.324 2.437z"/>
        <path fill="#05C0A5" d="M27.369 51.13h3.199l.646 3.423-1.534 2.661-4.947.833v-3.494z"/>
        <path fill="#003945" fill-rule="nonzero" d="M63.66 20.015c-.101-1.03-.864-1.802-1.88-1.905-12.865-1.03-22.068 5.304-27.814 13.233-3.152-1.03-6.559-.669-9.66 1.082-3 1.699-5.492 4.582-7.12 8.084-.355.824-.203 1.75.458 2.368.61.618 1.577.721 2.34.31 3.254-1.751 6.915-1.39 9.101.823l8.949 9.063c2.237 2.265 2.593 5.973.864 9.268-.406.773-.254 1.75.305 2.369.407.412.916.618 1.475.618.305 0 .61-.052.864-.206 3.458-1.648 6.305-4.223 7.983-7.21 1.78-3.14 2.136-6.59 1.068-9.834 2.288-1.7 4.373-3.553 6.102-5.613 5.39-6.23 7.728-13.8 6.966-22.45zm-39.812 17.97c2.186-2.162 4.932-3.5 7.83-2.986-.813 1.442-1.474 2.884-2.085 4.326a10.547 10.547 0 0 0-5.745-1.34zM44.136 58.48c.05-2.11-.407-4.119-1.322-5.87a41.259 41.259 0 0 0 4.27-2.11c.51 2.934-.762 5.766-2.948 7.98zm-4.068-9.217l-7.17-7.26c3.61-9.732 12.56-20.133 26.848-19.876.457 17.25-13.577 24.716-19.678 27.136zm13.17-20.545c.61.618.965 1.494.965 2.369 0 .875-.356 1.75-.966 2.369a3.332 3.332 0 0 1-2.339.978c-.864 0-1.729-.31-2.339-.978-.61-.67-.966-1.494-.966-2.37 0-.874.356-1.75.966-2.368a3.332 3.332 0 0 1 2.34-.978c.864 0 1.728.36 2.338.978zM22.17 58.17c0 1.133.915 2.06 2.034 2.06h.05c1.068 0 5.543-.154 7.83-2.472 1.425-1.441 1.73-2.935 1.73-3.913 0-1.39-.56-2.729-1.627-3.81-2.543-2.626-5.746-1.802-7.577.103-2.338 2.368-2.44 7.106-2.44 8.032zm7.068-3.347c-.509.515-1.628.876-2.797 1.03.203-1.184.56-2.317 1.017-2.78.356-.36.66-.567 1.017-.567.254 0 .56.155.864.464.305.309.458.618.458.875-.051.309-.305.721-.56.978z"/>
    </g>
</svg>
