<svg xmlns="http://www.w3.org/2000/svg" width="83" height="83" viewBox="0 0 83 83">
    <g fill="none" fill-rule="evenodd">
        <path fill="#FFF" d="M39.639 26.318l16.679 16.667-23.95 24.603-3.785-.963L17.946 56.26l-1.393-5.507 1.393-3.193zM43.191 27.816l12.225 13.048L65.601 29.65 52.488 17.226z"/>
        <path fill="#003945" fill-rule="nonzero" stroke="#003945" d="M67.527 28.638L54.102 15.453a1.582 1.582 0 0 0-2.215-.002l-10.07 9.853-1.13-1.13a1.582 1.582 0 0 0-2.243.006L16.319 46.546a7.904 7.904 0 0 0-.008 11.178l8.699 8.942.015.015a7.907 7.907 0 0 0 11.187 0L58.587 44.31a1.582 1.582 0 0 0 0-2.237l-1.119-1.119 10.069-10.068a1.582 1.582 0 0 0-.01-2.247zM33.975 64.444a4.744 4.744 0 0 1-6.706.007l-8.697-8.94-.015-.016a4.743 4.743 0 0 1 .006-6.718l21.012-21.241L55.23 43.19 33.975 64.444zM55.23 38.716L44.056 27.542l8.935-8.745 11.18 10.98-8.94 8.939z"/>
        <path fill="#05C0A5" stroke="#003945" stroke-width="3.8" d="M26.807 48.042l11.758-11.758a1 1 0 0 1 1.414 0l6.477 6.476a1 1 0 0 1 0 1.414L34.698 55.933a4 4 0 0 1-5.657 0l-2.234-2.234a4 4 0 0 1 0-5.657z"/>
        <g stroke="#003945" stroke-linecap="round" stroke-width="3.8">
            <path d="M31.609 51.015l.8-.859M35.717 46.906l3.204-3.433"/>
        </g>
        <path fill="#003945" fill-rule="nonzero" d="M54.583 24.308a1.719 1.719 0 0 0-2.43 0l-2.432 2.431a1.719 1.719 0 1 0 2.431 2.431l2.431-2.43a1.72 1.72 0 0 0 0-2.432zM58.692 28.417a1.719 1.719 0 0 0-2.431 0l-2.431 2.43a1.719 1.719 0 1 0 2.43 2.432l2.432-2.431a1.72 1.72 0 0 0 0-2.431z"/>
    </g>
</svg>
