<svg xmlns="http://www.w3.org/2000/svg" width="83" height="83" viewBox="0 0 83 83">
    <g fill="none" fill-rule="evenodd">
        <circle cx="29.5" cy="31.5" r="11.5" fill="#05C0A5"/>
        <path fill="#003945" fill-rule="nonzero" stroke="#003945" d="M61.497 52.297a1.864 1.864 0 0 0-2.645-.092l-3.976 3.702-4.243-4.547 3.976-3.701a1.875 1.875 0 0 0 .092-2.655 1.874 1.874 0 0 0-2.654-.092l-3.976 3.711-7.669-8.22c4.16-5.163 3.848-12.74-.955-17.544-5.134-5.144-13.463-5.144-18.597-.01-5.133 5.135-5.133 13.466 0 18.6 4.574 4.575 11.682 5.08 16.806 1.498l19.075 20.455c.707.762 1.892.799 2.654.092a1.883 1.883 0 0 0 .092-2.655l-2.048-2.195 3.976-3.702a1.872 1.872 0 0 0 .092-2.645zM23.504 38.804a9.403 9.403 0 0 1 0-13.3 9.4 9.4 0 0 1 13.298 0 9.403 9.403 0 0 1 0 13.3 9.4 9.4 0 0 1-13.298 0z"/>
    </g>
</svg>
