<svg xmlns="http://www.w3.org/2000/svg" width="83" height="83" viewBox="0 0 83 83">
    <g fill="none" fill-rule="evenodd">
        <path fill="#FFF" d="M23.726 27.316l6.833-3.519 7.106-2.837 2.994-2.27h3.961l4.394 2.27 4.79 2.043 4.225 2.047 1.306 2.266 1.906 2.186v6.58l-1.906 14.595-7.66 8.018-9.191 6.615-11.925-6.615-6.833-9.706-1.036-17.34z"/>
        <g transform="translate(33.978 30)">
            <ellipse cx="7.987" cy="14.667" fill="#05C0A5" rx="6.656" ry="6.667"/>
            <path fill="#003945" fill-rule="nonzero" stroke="#003945" stroke-width="2" d="M7.987 12c-.734 0-1.33.697-1.33 1.553 0 .619.31 1.153.76 1.403v2.377h1.141v-2.377c.45-.25.76-.785.76-1.403 0-.856-.596-1.553-1.33-1.553z"/>
            <path fill="#003945" fill-rule="nonzero" stroke="#003945" stroke-width="2" d="M12.734 8.125V4.79c0-2.641-2.13-4.79-4.747-4.79S3.241 2.149 3.241 4.79v3.335A8.08 8.08 0 0 0 0 14.605c0 4.445 3.583 8.062 7.987 8.062 4.405 0 7.988-3.617 7.988-8.062a8.08 8.08 0 0 0-3.241-6.48zM4.63 4.79c0-1.868 1.506-3.388 3.357-3.388 1.852 0 3.358 1.52 3.358 3.388v2.5a7.878 7.878 0 0 0-3.358-.747 7.878 7.878 0 0 0-3.357.748v-2.5zm3.357 16.475c-3.638 0-6.598-2.988-6.598-6.66s2.96-6.66 6.598-6.66c3.639 0 6.599 2.988 6.599 6.66s-2.96 6.66-6.599 6.66z"/>
        </g>
        <path fill="#003945" fill-rule="nonzero" d="M58.844 22.621c-4.976-.883-9.56-3.573-11.848-5.098A9.044 9.044 0 0 0 41.966 16a9.044 9.044 0 0 0-5.03 1.523c-2.29 1.525-6.872 4.215-11.85 5.098C22.14 23.144 20 25.668 20 28.623v12.26c0 4.05 1.145 7.998 3.402 11.734 1.767 2.923 4.214 5.717 7.274 8.304 5.145 4.349 10.24 6.617 10.455 6.711l.835.368.834-.368c.214-.094 5.31-2.362 10.455-6.711 3.06-2.587 5.507-5.38 7.274-8.304 2.257-3.736 3.402-7.684 3.402-11.734v-12.26c0-2.955-2.14-5.48-5.087-6.002zm.981 18.262c0 6.038-3.081 11.718-9.159 16.882-3.533 3.002-7.12 4.959-8.7 5.753-3.633-1.827-17.86-9.805-17.86-22.635v-12.26c0-.984.717-1.826 1.705-2.002 5.717-1.014 10.86-4.023 13.417-5.727a4.922 4.922 0 0 1 5.475 0c2.557 1.704 7.7 4.713 13.417 5.727a2.045 2.045 0 0 1 1.705 2.002v12.26z"/>
    </g>
</svg>
