<svg xmlns="http://www.w3.org/2000/svg" width="83" height="83" viewBox="0 0 83 83">
    <g fill="#003945" fill-rule="nonzero" stroke="#003945" stroke-width="1.4">
        <path d="M65.811 24.367a1.548 1.548 0 0 0-1.864 1.138l-.807 3.358C58.335 21.497 50.097 17 41.17 17c-6.99 0-13.562 2.704-18.505 7.613C17.722 29.523 15 36.049 15 42.993c0 .848.693 1.536 1.548 1.536.854 0 1.547-.688 1.547-1.537 0-12.637 10.352-22.918 23.075-22.918 7.855 0 15.106 3.95 19.346 10.421l-3.417-.81a1.548 1.548 0 0 0-1.864 1.14 1.536 1.536 0 0 0 1.146 1.85l7.034 1.668a1.546 1.546 0 0 0 1.865-1.138l1.677-6.987a1.537 1.537 0 0 0-1.146-1.851zM65.452 41.47c-.854 0-1.547.689-1.547 1.538 0 12.637-10.352 22.918-23.075 22.918-7.855 0-15.106-3.95-19.347-10.421l3.417.81a1.548 1.548 0 0 0 1.865-1.14 1.536 1.536 0 0 0-1.146-1.85l-7.034-1.668a1.548 1.548 0 0 0-1.864 1.139l-1.678 6.986a1.536 1.536 0 0 0 1.506 1.894c.7 0 1.335-.475 1.504-1.181l.807-3.359C23.665 64.503 31.903 69 40.83 69c6.99 0 13.562-2.704 18.505-7.613C64.278 56.477 67 49.951 67 43.007c0-.848-.693-1.536-1.548-1.536z"/>
        <path d="M42.02 41.436c-1.914 0-3.47-1.543-3.47-3.439 0-1.895 1.556-3.438 3.47-3.438h5.048c.872 0 1.58-.7 1.58-1.564 0-.864-.708-1.564-1.58-1.564h-3.47V29.78c0-.864-.707-1.564-1.578-1.564-.872 0-1.58.7-1.58 1.564v1.84c-2.894.704-5.048 3.296-5.048 6.377 0 3.621 2.973 6.567 6.628 6.567 1.913 0 3.47 1.543 3.47 3.439 0 1.895-1.557 3.438-3.47 3.438h-5.05c-.871 0-1.578.7-1.578 1.564 0 .864.707 1.564 1.579 1.564h3.47v1.651c0 .864.707 1.564 1.579 1.564.871 0 1.578-.7 1.578-1.564v-1.84c2.895-.704 5.05-3.296 5.05-6.377 0-3.621-2.974-6.567-6.628-6.567z"/>
    </g>
</svg>
